# xmcd
#
# Track frame offsets:
#	150
#	19057
#	35903
#	38323
#	62701
#	89196
#	92891
#	116676
#	159328
#	161395
#	227659
#	253652
#	261655
#	289462
#	318416
#	335502
#
# Disc length: 4788 seconds
#
# Revision: 1
# Processed by: cddbd v1.5.1PL0 Copyright (c) Steve Scherf et al.
# Submitted via: EasyCDDAExtractor 7.0.5.4
#
DISCID=e612b210
DTITLE=Einsturzende Neubauten - Perpetuum Mobil Tour, 04-24-2004, NYC [CD1]
DYEAR=2004
DGENRE=Comedy
TTITLE0=Introduction: "2nd gig on this American tour..."
TTITLE1=Ich gehe Jetzt
TTITLE2=Transition: "Husky: The toughest Name in tools..."
TTITLE3=Good Morning Everybody (Rampe)
TTITLE4=Selbsportrait mit Kater
TTITLE5=Transition: "Someone has stolen my set list..."
TTITLE6=Dead Friends (Around the corner)
TTITLE7=Redukt
TTITLE8=Transition: "Wish you would have paid more attention in German class..
TTITLE8="
TTITLE9=Perpetuum Mobil
TTITLE10=Youme and Meyou
TTITLE11=Transition: "recording of my heart beat..."
TTITLE12=Neun Arme/Die Nacht
TTITLE13=Die Befindlidakeit des Landes
TTITLE14=Haus der Luge/Armenia
TTITLE15=Tremor (Rampe)
EXTD=
EXTT0=
EXTT1=
EXTT2=
EXTT3=
EXTT4=
EXTT5=
EXTT6=
EXTT7=
EXTT8=
EXTT9=
EXTT10=
EXTT11=
EXTT12=
EXTT13=
EXTT14=
EXTT15=
PLAYORDER=
